<svg width="20" height="20" viewBox="0 0 20 20" fill="none" xmlns="http://www.w3.org/2000/svg">
<path d="M7.18164 15.25V16.2574C7.18164 17.053 6.86557 17.8161 6.30296 18.3787L5.68164 19H14.6816L14.0603 18.3787C13.4977 17.8161 13.1816 17.053 13.1816 16.2574V15.25M19.1816 3.25V13C19.1816 14.2426 18.1743 15.25 16.9316 15.25H3.43164C2.189 15.25 1.18164 14.2426 1.18164 13V3.25M19.1816 3.25C19.1816 2.00736 18.1743 1 16.9316 1H3.43164C2.189 1 1.18164 2.00736 1.18164 3.25M19.1816 3.25V10C19.1816 11.2426 18.1743 12.25 16.9316 12.25H3.43164C2.189 12.25 1.18164 11.2426 1.18164 10V3.25" stroke="white" stroke-width="1.5" stroke-linecap="round" stroke-linejoin="round"/>
</svg>
